<svg xmlns="http://www.w3.org/2000/svg" viewBox="0 0 511.99 188.3"><defs><style>.cls-1{fill:#006dbf;}.cls-2{fill:#5f35d1;}.cls-3{fill:#a335d1;}.cls-4{fill:#ff2045;}.cls-5{fill:#ffb129;}.cls-6{fill:#638e04;}.cls-7{fill:#00b3fa;}</style></defs><title>logo</title><g id="Capa_2" data-name="Capa 2"><g id="Capa_1-2" data-name="Capa 1"><path class="cls-1" d="M116.25,124.78a4.9,4.9,0,0,1-4.9-4.9V79.09a35.88,35.88,0,0,0-71.77,0v40.78a4.9,4.9,0,1,1-9.8,0V79.09a45.68,45.68,0,0,1,91.36,0v40.78A4.9,4.9,0,0,1,116.25,124.78Z"/><path class="cls-1" d="M175.63,124.78a45.68,45.68,0,1,1,32.3-78A4.9,4.9,0,1,1,201,53.72a35.88,35.88,0,1,0,0,50.75,4.9,4.9,0,0,1,6.93,6.93A45.38,45.38,0,0,1,175.63,124.78Z"/><path class="cls-1" d="M267.29,124.78a45.73,45.73,0,0,1-45.68-45.68V38.31a4.9,4.9,0,0,1,9.8,0V79.09a35.88,35.88,0,1,0,71.77,0V38.31a4.9,4.9,0,0,1,9.8,0V79.09A45.73,45.73,0,0,1,267.29,124.78Z"/><path class="cls-1" d="M369.41,124.78a45.68,45.68,0,1,1,45.68-45.68A45.73,45.73,0,0,1,369.41,124.78Zm0-81.56a35.88,35.88,0,1,0,35.88,35.88A35.92,35.92,0,0,0,369.41,43.21Z"/><path class="cls-1" d="M466.3,124.78A45.68,45.68,0,1,1,512,79.09,45.73,45.73,0,0,1,466.3,124.78Zm0-81.56a35.88,35.88,0,1,0,35.88,35.88A35.92,35.92,0,0,0,466.3,43.21Z"/><circle class="cls-2" cx="466.3" cy="79.09" r="10.21"/><circle class="cls-3" cx="369.41" cy="79.09" r="10.21"/><circle class="cls-4" cx="267.29" cy="79.09" r="10.21"/><circle class="cls-5" cx="175.63" cy="79.09" r="10.21"/><circle class="cls-6" cx="75.47" cy="79.09" r="10.21"/><circle class="cls-7" cx="10.21" cy="34.11" r="10.21"/><path class="cls-1" d="M328.63,84a4.9,4.9,0,0,1-4.9-4.9V4.9a4.9,4.9,0,0,1,9.8,0V79.09A4.9,4.9,0,0,1,328.63,84Z"/><path class="cls-1" d="M507.09,124.78a4.9,4.9,0,0,1-4.9-4.9V79.09a4.9,4.9,0,0,1,9.8,0v40.78A4.9,4.9,0,0,1,507.09,124.78Z"/><path class="cls-1" d="M10.21,124.78a4.9,4.9,0,0,1-4.9-4.9V65.48a4.9,4.9,0,0,1,9.8,0v54.39A4.9,4.9,0,0,1,10.21,124.78Z"/><path class="cls-1" d="M118.14,176.27a16.31,16.31,0,1,1,11.53-27.85,1.63,1.63,0,1,1-2.31,2.31,13,13,0,1,0,0,18.45,1.63,1.63,0,0,1,2.31,2.31A16.2,16.2,0,0,1,118.14,176.27Z"/><path class="cls-1" d="M324.87,161.59a1.63,1.63,0,0,1-1.63-1.63V133.25a1.63,1.63,0,0,1,3.27,0V160A1.63,1.63,0,0,1,324.87,161.59Z"/><path class="cls-1" d="M218.53,176.27A16.31,16.31,0,1,1,234.85,160,16.33,16.33,0,0,1,218.53,176.27Zm0-29.36a13,13,0,1,0,13,13A13.06,13.06,0,0,0,218.53,146.91Z"/><path class="cls-1" d="M339.55,176.27A16.33,16.33,0,0,1,323.24,160a1.63,1.63,0,1,1,3.27,0,13.06,13.06,0,0,0,13,13,1.63,1.63,0,1,1,0,3.27Z"/><path class="cls-1" d="M149,176.27A16.31,16.31,0,1,1,165.3,160,16.33,16.33,0,0,1,149,176.27Zm0-29.36a13,13,0,1,0,13,13A13.06,13.06,0,0,0,149,146.91Z"/><path class="cls-1" d="M252.74,176.27A16.31,16.31,0,1,1,269.05,160a1.63,1.63,0,0,1-1.63,1.63H239.79A13.07,13.07,0,0,0,252.74,173a1.63,1.63,0,1,1,0,3.27Zm-12.94-17.95h25.89a13,13,0,0,0-25.89,0Z"/><path class="cls-1" d="M183.66,176.27A16.31,16.31,0,1,1,200,160,16.33,16.33,0,0,1,183.66,176.27Zm0-29.36a13,13,0,1,0,13,13A13.06,13.06,0,0,0,183.66,146.91Z"/><path class="cls-1" d="M273.18,176.27a1.63,1.63,0,0,1-1.63-1.63V160a16.33,16.33,0,0,1,16.31-16.31,1.63,1.63,0,1,1,0,3.27,13.06,13.06,0,0,0-13,13v14.68A1.63,1.63,0,0,1,273.18,176.27Z"/><path class="cls-1" d="M203.85,188.3a1.63,1.63,0,0,1-1.63-1.63V160a1.63,1.63,0,1,1,3.27,0v26.71A1.63,1.63,0,0,1,203.85,188.3Z"/><path class="cls-1" d="M303.09,176.27A16.31,16.31,0,1,1,319.41,160,16.33,16.33,0,0,1,303.09,176.27Zm0-29.36a13,13,0,1,0,13,13A13.06,13.06,0,0,0,303.09,146.91Z"/><path class="cls-1" d="M317.77,176.27a1.63,1.63,0,0,1-1.63-1.63V160a1.63,1.63,0,0,1,3.27,0v14.68A1.63,1.63,0,0,1,317.77,176.27Z"/><path class="cls-1" d="M400.17,176.27A16.31,16.31,0,1,1,416.48,160,16.33,16.33,0,0,1,400.17,176.27Zm0-29.36a13,13,0,1,0,13,13A13.06,13.06,0,0,0,400.17,146.91Z"/><path class="cls-1" d="M414.85,176.27a1.63,1.63,0,0,1-1.63-1.63V160a1.63,1.63,0,1,1,3.27,0v14.68A1.63,1.63,0,0,1,414.85,176.27Z"/><circle class="cls-1" cx="348.95" cy="144.45" r="2.52"/><path class="cls-1" d="M348.95,176.27a1.63,1.63,0,0,1-1.63-1.63V155.06a1.63,1.63,0,1,1,3.27,0v19.58A1.63,1.63,0,0,1,348.95,176.27Z"/><path class="cls-1" d="M339.55,146.91H324.87a1.63,1.63,0,0,1,0-3.27h14.68a1.63,1.63,0,0,1,0,3.27Z"/><path class="cls-1" d="M370.25,176.27a4.53,4.53,0,0,1-4.13-2.84l-12-27.5a1.63,1.63,0,1,1,3-1.31l12,27.5a1.18,1.18,0,0,0,2.28,0l12-27.5a1.63,1.63,0,1,1,3,1.31l-12,27.5A4.53,4.53,0,0,1,370.25,176.27Z"/></g></g></svg>